<svg width="42" height="49" viewBox="0 0 42 49" fill="none" xmlns="http://www.w3.org/2000/svg">
<path d="M24.4774 34.5931C33.3536 34.5931 41.036 27.8259 41.5915 18.9216C41.6151 18.5654 41.627 18.2211 41.627 17.8649C41.627 7.39352 33.8618 0.923096 21.4399 0.923096H4.39672C1.96198 0.923096 0 2.90578 0 5.33962C0 7.78532 1.97379 9.76801 4.40853 9.75614L20.8489 9.72052C27.4204 9.72052 30.7415 12.7242 30.7415 17.8649C30.7415 22.9344 27.4204 26.0094 20.8489 26.0094C18.4615 26.0094 16.5468 27.9802 16.6177 30.3784V30.4497C16.6768 32.7529 18.556 34.5931 20.8489 34.5931H24.4774Z" fill="url(#paint0_linear_2_71)"/>
<path d="M6.7605 48.9229C4.27848 48.9229 2.26923 46.9046 2.26923 44.4114V18.221C2.26923 15.7278 4.27848 13.7095 6.7605 13.7095H20.8016C23.2836 13.7095 25.2929 15.7278 25.2929 18.221C25.2929 20.7142 23.2836 22.7325 20.8016 22.7325H11.2518V44.4114C11.2518 46.9046 9.24251 48.9229 6.7605 48.9229Z" fill="url(#paint1_linear_2_71)"/>
<defs>
<linearGradient id="paint0_linear_2_71" x1="23.3661" y1="-5.99128" x2="23.0974" y2="34.5913" gradientUnits="userSpaceOnUse">
<stop stop-color="#B2C6FF"/>
<stop offset="1" stop-color="#638AEF"/>
</linearGradient>
<linearGradient id="paint1_linear_2_71" x1="15.1929" y1="6.47814" x2="14.6615" y2="48.9163" gradientUnits="userSpaceOnUse">
<stop stop-color="#B2C6FF"/>
<stop offset="1" stop-color="#638AEF"/>
</linearGradient>
</defs>
</svg>
